<svg version="1.1" id="Layer_1" xmlns="http://www.w3.org/2000/svg" xmlns:xlink="http://www.w3.org/1999/xlink" x="0px" y="0px"
	 width="100%" viewBox="0 0 635 157" enable-background="new 0 0 635 157" xml:space="preserve">
<path fill="#FDFDFD" opacity="1.000000" stroke="none" 
	d="
M463.000000,158.000000 
	C308.715210,158.000000 154.930435,158.000000 1.072826,158.000000 
	C1.072826,105.731819 1.072826,53.463512 1.072826,1.097601 
	C212.666641,1.097601 424.333313,1.097601 635.972656,1.097601 
	C635.972656,53.402824 635.972656,105.701424 635.972656,158.000000 
	C578.463562,158.000000 520.981750,158.000000 463.000000,158.000000 
M351.104492,79.266769 
	C350.899658,79.024551 350.694824,78.782333 350.430725,78.015068 
	C350.457733,77.671730 350.484741,77.328392 350.997986,76.420502 
	C353.040497,72.475388 355.083008,68.530273 357.120880,64.594177 
	C348.944275,58.172642 346.811218,58.465519 343.275940,67.941551 
	C339.157288,78.981178 335.561035,90.228104 332.104248,101.497391 
	C330.162964,107.826057 332.127350,110.242897 337.594360,111.043839 
	C341.910156,102.270226 346.039948,93.874664 350.814636,85.199570 
	C353.813538,82.662193 356.812408,80.124817 359.822998,77.577560 
	C361.755859,80.077225 363.084412,82.210266 364.836578,83.905449 
	C365.883728,84.918510 368.231262,86.152199 368.878418,85.697739 
	C370.359100,84.657959 371.959686,82.700020 372.080444,81.012527 
	C372.474854,75.501793 372.228333,69.945183 372.228333,64.311943 
	C369.010956,62.008278 366.958862,63.329983 364.537964,66.304855 
	C360.579926,71.168709 355.968964,75.501236 351.104492,79.266769 
M407.917358,68.997421 
	C407.203522,68.693199 406.489685,68.388985 405.222412,67.725365 
	C399.309143,60.841938 396.680054,60.410053 389.921600,66.065002 
	C380.936035,73.583443 375.182556,83.209290 373.471497,94.825882 
	C372.967194,98.249603 373.670685,102.177826 374.921051,105.454994 
	C376.689697,110.090553 381.112640,111.491676 385.024841,108.545876 
	C388.910217,105.620277 392.010712,101.652321 396.028595,97.807701 
	C396.822906,96.929825 397.617249,96.051956 398.735138,94.816490 
	C399.279633,110.607368 401.183197,112.835342 408.507874,108.764740 
	C408.507874,103.796074 407.701721,99.242989 408.689026,95.119293 
	C410.341064,88.219307 413.229523,81.622482 415.385040,74.830612 
	C415.892212,73.232613 416.292725,70.592194 415.447784,69.782928 
	C413.670380,68.080597 411.074402,66.303040 407.917358,68.997421 
M235.024139,96.648781 
	C235.052856,97.099174 235.081573,97.549561 234.927139,98.736862 
	C235.096527,102.428574 233.348175,106.998840 237.576691,109.124596 
	C239.775391,110.229927 242.987595,109.319244 244.474426,109.319244 
	C244.474426,104.159386 243.677399,99.915222 244.644119,96.120361 
	C246.524811,88.737663 249.178574,81.522469 251.958176,74.412277 
	C253.112488,71.459610 252.965439,69.869820 250.002396,68.526863 
	C247.025208,67.177505 245.553543,68.154900 244.188232,70.938889 
	C241.770874,75.868065 239.248993,80.796036 236.230408,85.367676 
	C232.431122,91.121719 228.216705,96.620583 223.879379,101.985367 
	C222.952957,103.131241 220.730133,103.229012 219.104553,103.809631 
	C218.887634,102.092918 218.164337,100.257935 218.533386,98.678093 
	C221.671951,85.241508 229.201004,75.244461 242.011322,69.556648 
	C238.128067,61.568550 233.602783,60.236946 226.857391,65.483009 
	C218.564590,71.932549 213.078430,80.453400 210.534500,90.575462 
	C209.552048,94.484505 209.387573,98.904411 210.100113,102.866829 
	C211.352768,109.832603 217.336273,112.191551 222.637589,107.610626 
	C227.028717,103.816223 230.316208,98.744629 234.471756,94.141434 
	C234.471756,94.141434 234.856552,94.069832 234.977600,94.717758 
	C235.061829,95.144958 235.146042,95.572166 235.024139,96.648781 
M478.161407,82.068001 
	C478.371490,82.219521 478.581573,82.371040 478.798676,83.276237 
	C477.498688,89.546104 475.662720,95.767365 475.088013,102.103027 
	C474.707855,106.294167 478.286011,108.409058 482.299347,109.006935 
	C486.328369,109.607155 490.687561,107.266655 492.118073,103.875305 
	C484.702911,104.073807 483.756348,103.009209 485.636353,95.340073 
	C487.879242,86.190331 491.912994,77.859230 498.122070,70.747238 
	C494.293671,65.208626 491.341614,64.332657 485.958679,67.564636 
	C482.981018,69.352470 480.038940,71.406326 477.613586,73.865677 
	C472.005066,79.552841 466.751190,85.588371 461.278809,91.412422 
	C460.239471,92.518570 458.855865,93.301254 457.631134,94.233185 
	C460.560730,87.067055 464.254578,80.793739 467.943848,74.517738 
	C471.955353,67.693680 470.179016,62.723103 462.114563,59.274563 
	C453.006439,72.769386 446.448395,87.393379 444.210724,103.655449 
	C443.810089,106.567261 446.008575,109.836716 447.007019,112.941040 
	C447.647858,112.940102 448.288696,112.939156 448.929535,112.938217 
	C452.546448,108.234192 455.837006,103.226845 459.858978,98.899292 
	C465.477814,92.853508 471.642548,87.315132 478.161407,82.068001 
M557.941895,81.909813 
	C558.106995,82.080116 558.272156,82.250420 558.412903,83.152519 
	C557.020386,89.084137 555.102295,94.955704 554.415283,100.967941 
	C553.936951,105.154762 556.831665,108.209869 561.217285,108.883072 
	C565.716248,109.573677 569.274170,107.738152 572.840027,104.034195 
	C564.127380,103.641029 563.308411,102.403015 565.446533,94.093643 
	C565.901917,92.323692 566.353088,90.498505 567.174561,88.886436 
	C570.382935,82.589828 573.739136,76.368530 577.176025,69.862442 
	C573.536072,65.051781 570.244385,63.967724 564.976379,68.000877 
	C558.676697,72.823929 553.086670,78.583717 547.270691,84.024757 
	C544.335388,86.770805 541.579651,89.708755 538.185181,93.120316 
	C537.989380,91.458763 537.813049,91.069832 537.937439,90.855621 
	C541.018921,85.549881 544.131165,80.262032 547.239868,74.972176 
	C551.539734,67.655510 550.011475,62.973892 541.707214,59.236946 
	C532.568176,72.900116 525.910889,87.622757 523.677795,104.078354 
	C523.215820,107.483147 524.487000,110.944778 528.670349,112.799515 
	C532.354858,107.974472 535.628174,102.906082 539.682556,98.567665 
	C545.311096,92.544861 551.525818,87.069901 557.941895,81.909813 
M189.661591,80.619186 
	C188.192291,83.787048 186.122726,86.823746 185.395096,90.153671 
	C184.317123,95.086884 183.660492,100.246590 183.835953,105.274574 
	C183.964523,108.959244 187.156570,110.954010 190.886597,111.061005 
	C194.759766,111.172119 198.019592,109.837502 200.761459,106.062180 
	C192.848007,105.917198 192.172958,105.011749 193.966843,97.783493 
	C194.485855,95.692177 195.169449,93.613342 196.034439,91.641472 
	C198.842194,85.240837 201.847168,78.926270 204.625046,72.513100 
	C206.802063,67.487061 204.559402,64.351822 199.035843,65.036201 
	C196.699936,65.325615 194.029480,66.335869 192.356415,67.914421 
	C187.291428,72.693321 182.633804,77.904640 177.830887,82.960243 
	C176.144745,84.735092 174.497589,86.546989 172.832642,88.341972 
	C172.414597,88.064194 171.996552,87.786423 171.578506,87.508644 
	C174.832382,81.253738 178.086243,74.998825 181.272690,68.873535 
	C174.548798,64.099945 171.047165,63.715424 165.920563,68.498688 
	C160.230621,73.807587 155.276154,79.906006 150.017776,85.675552 
	C148.321548,87.536690 146.677032,89.444954 145.008850,91.331657 
	C144.612747,91.119698 144.216644,90.907730 143.820541,90.695770 
	C144.441910,89.045349 144.863617,87.282021 145.721375,85.765289 
	C148.505051,80.843048 151.494049,76.037430 154.318146,71.137436 
	C157.415314,65.763695 155.204376,61.223625 148.992447,60.343704 
	C148.114456,60.219341 146.618179,60.855740 146.205475,61.588879 
	C139.495255,73.509369 132.914078,85.527542 131.431870,99.460480 
	C130.971909,103.784111 132.316055,107.607841 136.713318,110.403976 
	C145.336227,97.940102 153.223526,85.036018 165.039017,75.643219 
	C162.422577,84.055046 159.193985,91.968529 156.569260,100.077484 
	C154.942322,105.103920 156.800903,107.785675 162.261444,109.932037 
	C167.734512,102.698441 173.119003,95.308792 178.816391,88.168823 
	C181.600876,84.679337 184.851944,81.530403 188.125259,78.477638 
	C189.534348,77.163490 191.122681,77.037193 189.661591,80.619186 
M26.475691,57.898506 
	C20.228123,70.860352 16.229467,84.339630 17.932245,98.905357 
	C19.400766,111.467239 28.508108,118.423187 40.795223,115.591118 
	C47.124847,114.132195 53.616890,111.526489 58.922985,107.838356 
	C72.788033,98.201096 80.996521,84.439941 84.079193,67.876457 
	C85.010262,62.873741 85.052238,57.590599 84.680420,52.495831 
	C84.369331,48.233173 82.363853,44.463360 77.405968,42.660084 
	C78.369980,59.489700 76.479736,71.580101 70.993607,83.947395 
	C66.500114,94.077019 60.219013,102.747543 50.208454,108.102547 
	C37.273102,115.022133 29.259037,110.375298 29.507708,95.763603 
	C29.797331,78.745621 35.860184,63.865433 47.875668,51.691029 
	C53.681404,45.808498 60.535728,41.927425 69.301971,43.087070 
	C69.827713,43.156620 70.398193,42.888069 71.150169,42.735909 
	C63.230507,32.215527 52.196793,29.789661 42.827007,37.790421 
	C36.540161,43.158691 32.098625,50.688034 26.475691,57.898506 
M87.512764,86.036415 
	C85.204834,92.391533 84.370705,98.691147 88.632347,104.612862 
	C90.826576,107.661842 93.414780,109.109512 97.014336,106.349091 
	C99.859962,104.166862 102.942162,102.293121 106.122910,100.144867 
	C105.933167,107.624901 99.407562,122.460236 92.367493,129.706955 
	C89.003616,133.169571 84.664902,135.975189 80.288467,138.083633 
	C75.782051,140.254715 70.804115,139.653473 65.969856,137.213211 
	C67.006126,139.181747 68.131737,141.031296 69.777107,141.956543 
	C79.308403,147.316315 91.062752,145.555801 98.452812,137.281067 
	C102.299370,132.974030 106.154373,128.291550 108.501221,123.098793 
	C116.018242,106.466232 122.832993,89.516273 129.879486,72.782127 
	C123.558556,68.851265 122.948051,69.001724 120.241280,74.654648 
	C115.266655,85.043808 108.308266,93.845268 99.083633,100.774704 
	C97.648300,101.852905 95.862831,102.464989 93.907623,103.461678 
	C93.921967,88.691383 111.799179,67.432083 125.882874,64.580238 
	C123.924042,59.708923 121.087601,58.073128 115.758316,59.518562 
	C102.013474,63.246502 93.495796,72.787872 87.512764,86.036415 
M600.658508,99.893196 
	C597.903931,113.413223 592.350586,125.432175 581.592773,134.498520 
	C577.205872,138.195618 571.955322,139.771729 566.213074,138.934647 
	C564.154114,138.634491 562.185913,137.711548 560.176331,137.072830 
	C560.831482,139.103470 561.961975,140.466904 563.393982,141.330338 
	C573.309875,147.309326 584.808533,146.057281 592.427856,137.373810 
	C596.993042,132.171051 601.328613,126.376442 604.161011,120.120567 
	C611.220642,104.528473 617.361633,88.520447 623.843201,72.747925 
	C617.854248,68.841934 617.076172,69.015663 614.381348,74.627121 
	C609.389465,85.021530 602.433655,93.837776 593.187256,100.763741 
	C591.743286,101.845360 589.966248,102.482491 588.011719,103.497292 
	C588.038208,88.725601 605.940125,67.409424 619.990356,64.576340 
	C618.054688,59.735706 615.228760,58.313595 609.832153,59.464348 
	C596.234131,62.363941 581.456665,78.740234 579.952698,92.596283 
	C579.429016,97.420990 580.180115,101.900421 583.595154,105.637024 
	C585.641541,107.876083 587.806396,108.727394 590.552429,106.670891 
	C593.612366,104.379257 596.783447,102.235886 600.658508,99.893196 
M327.114532,54.738419 
	C327.956268,52.746155 329.022064,50.815922 329.594177,48.749027 
	C330.883362,44.091957 333.820435,42.705452 338.475952,43.036312 
	C343.834412,43.417130 349.240753,43.124752 354.759552,43.124752 
	C352.745697,33.727634 350.961426,32.661945 342.378845,33.543823 
	C334.450012,34.358528 326.467438,34.768578 318.497803,35.032883 
	C311.196136,35.275043 303.880127,35.084286 296.638123,35.084286 
	C294.439056,41.528885 297.196228,45.933125 303.721680,46.042473 
	C308.574402,46.123787 313.438202,45.545116 318.934875,45.223022 
	C317.581512,49.449368 316.549927,52.936394 315.352142,56.365349 
	C310.141418,71.281975 304.796844,86.152390 299.675049,101.099281 
	C296.895538,109.210754 299.738373,113.632774 307.342377,115.179359 
	C313.871002,95.185387 320.357269,75.321098 327.114532,54.738419 
M511.876617,97.646484 
	C515.487305,89.346634 519.097900,81.046776 522.896118,72.315826 
	C516.991638,64.891426 512.185791,64.883591 508.504791,74.343758 
	C505.178955,82.891174 503.505463,92.161552 501.861816,101.250290 
	C501.018555,105.913132 504.456665,108.552299 508.635925,109.796783 
	C509.697052,105.713112 510.647919,102.053696 511.876617,97.646484 
M441.201172,77.755592 
	C442.228149,76.278824 443.255127,74.802048 444.238464,73.388023 
	C437.858704,64.816910 432.889771,64.761658 429.145081,74.260078 
	C425.775269,82.807594 424.022827,92.083183 422.388885,101.186935 
	C421.557190,105.820900 424.996552,108.655914 428.107147,109.480675 
	C432.448303,98.850616 436.626892,88.618660 441.201172,77.755592 
M441.702118,56.243248 
	C442.261292,57.787521 442.820465,59.331799 443.641327,61.598732 
	C448.261017,56.057827 451.952728,51.629948 456.348938,46.357075 
	C452.346222,43.719143 448.555298,41.220768 444.764343,38.722393 
	C444.138458,39.014572 443.512573,39.306755 442.886688,39.598934 
	C442.390564,44.914471 441.894409,50.230011 441.702118,56.243248 
M532.002258,43.531090 
	C529.366577,41.983540 526.730835,40.435993 524.056335,38.865654 
	C519.164795,48.841881 519.270264,57.844936 523.997375,60.440624 
	C527.682617,56.023212 531.372498,51.600292 535.217712,46.991104 
	C534.279236,45.937481 533.415771,44.968075 532.002258,43.531090 
z"/>
<path fill="#101010" opacity="1.000000" stroke="none" 
	d="
M189.836578,80.245148 
	C191.122681,77.037193 189.534348,77.163490 188.125259,78.477638 
	C184.851944,81.530403 181.600876,84.679337 178.816391,88.168823 
	C173.119003,95.308792 167.734512,102.698441 162.261444,109.932037 
	C156.800903,107.785675 154.942322,105.103920 156.569260,100.077484 
	C159.193985,91.968529 162.422577,84.055046 165.039017,75.643219 
	C153.223526,85.036018 145.336227,97.940102 136.713318,110.403976 
	C132.316055,107.607841 130.971909,103.784111 131.431870,99.460480 
	C132.914078,85.527542 139.495255,73.509369 146.205475,61.588879 
	C146.618179,60.855740 148.114456,60.219341 148.992447,60.343704 
	C155.204376,61.223625 157.415314,65.763695 154.318146,71.137436 
	C151.494049,76.037430 148.505051,80.843048 145.721375,85.765289 
	C144.863617,87.282021 144.441910,89.045349 143.820541,90.695770 
	C144.216644,90.907730 144.612747,91.119698 145.008850,91.331657 
	C146.677032,89.444954 148.321548,87.536690 150.017776,85.675552 
	C155.276154,79.906006 160.230621,73.807587 165.920563,68.498688 
	C171.047165,63.715424 174.548798,64.099945 181.272690,68.873535 
	C178.086243,74.998825 174.832382,81.253738 171.578506,87.508644 
	C171.996552,87.786423 172.414597,88.064194 172.832642,88.341972 
	C174.497589,86.546989 176.144745,84.735092 177.830887,82.960243 
	C182.633804,77.904640 187.291428,72.693321 192.356415,67.914421 
	C194.029480,66.335869 196.699936,65.325615 199.035843,65.036201 
	C204.559402,64.351822 206.802063,67.487061 204.625046,72.513100 
	C201.847168,78.926270 198.842194,85.240837 196.034439,91.641472 
	C195.169449,93.613342 194.485855,95.692177 193.966843,97.783493 
	C192.172958,105.011749 192.848007,105.917198 200.761459,106.062180 
	C198.019592,109.837502 194.759766,111.172119 190.886597,111.061005 
	C187.156570,110.954010 183.964523,108.959244 183.835953,105.274574 
	C183.660492,100.246590 184.317123,95.086884 185.395096,90.153671 
	C186.122726,86.823746 188.192291,83.787048 189.836578,80.245148 
z"/>
<path fill="#0D0D0D" opacity="1.000000" stroke="none" 
	d="
M26.653564,57.574478 
	C32.098625,50.688034 36.540161,43.158691 42.827007,37.790421 
	C52.196793,29.789661 63.230507,32.215527 71.150169,42.735909 
	C70.398193,42.888069 69.827713,43.156620 69.301971,43.087070 
	C60.535728,41.927425 53.681404,45.808498 47.875668,51.691029 
	C35.860184,63.865433 29.797331,78.745621 29.507708,95.763603 
	C29.259037,110.375298 37.273102,115.022133 50.208454,108.102547 
	C60.219013,102.747543 66.500114,94.077019 70.993607,83.947395 
	C76.479736,71.580101 78.369980,59.489700 77.405968,42.660084 
	C82.363853,44.463360 84.369331,48.233173 84.680420,52.495831 
	C85.052238,57.590599 85.010262,62.873741 84.079193,67.876457 
	C80.996521,84.439941 72.788033,98.201096 58.922985,107.838356 
	C53.616890,111.526489 47.124847,114.132195 40.795223,115.591118 
	C28.508108,118.423187 19.400766,111.467239 17.932245,98.905357 
	C16.229467,84.339630 20.228123,70.860352 26.653564,57.574478 
z"/>
<path fill="#0D0D0D" opacity="1.000000" stroke="none" 
	d="
M87.660294,85.679169 
	C93.495796,72.787872 102.013474,63.246502 115.758316,59.518562 
	C121.087601,58.073128 123.924042,59.708923 125.882874,64.580238 
	C111.799179,67.432083 93.921967,88.691383 93.907623,103.461678 
	C95.862831,102.464989 97.648300,101.852905 99.083633,100.774704 
	C108.308266,93.845268 115.266655,85.043808 120.241280,74.654648 
	C122.948051,69.001724 123.558556,68.851265 129.879486,72.782127 
	C122.832993,89.516273 116.018242,106.466232 108.501221,123.098793 
	C106.154373,128.291550 102.299370,132.974030 98.452812,137.281067 
	C91.062752,145.555801 79.308403,147.316315 69.777107,141.956543 
	C68.131737,141.031296 67.006126,139.181747 65.969856,137.213211 
	C70.804115,139.653473 75.782051,140.254715 80.288467,138.083633 
	C84.664902,135.975189 89.003616,133.169571 92.367493,129.706955 
	C99.407562,122.460236 105.933167,107.624901 106.122910,100.144867 
	C102.942162,102.293121 99.859962,104.166862 97.014336,106.349091 
	C93.414780,109.109512 90.826576,107.661842 88.632347,104.612862 
	C84.370705,98.691147 85.204834,92.391533 87.660294,85.679169 
z"/>
<path fill="#0D0D0D" opacity="1.000000" stroke="none" 
	d="
M600.282349,99.960587 
	C596.783447,102.235886 593.612366,104.379257 590.552429,106.670891 
	C587.806396,108.727394 585.641541,107.876083 583.595154,105.637024 
	C580.180115,101.900421 579.429016,97.420990 579.952698,92.596283 
	C581.456665,78.740234 596.234131,62.363941 609.832153,59.464348 
	C615.228760,58.313595 618.054688,59.735706 619.990356,64.576340 
	C605.940125,67.409424 588.038208,88.725601 588.011719,103.497292 
	C589.966248,102.482491 591.743286,101.845360 593.187256,100.763741 
	C602.433655,93.837776 609.389465,85.021530 614.381348,74.627121 
	C617.076172,69.015663 617.854248,68.841934 623.843201,72.747925 
	C617.361633,88.520447 611.220642,104.528473 604.161011,120.120567 
	C601.328613,126.376442 596.993042,132.171051 592.427856,137.373810 
	C584.808533,146.057281 573.309875,147.309326 563.393982,141.330338 
	C561.961975,140.466904 560.831482,139.103470 560.176331,137.072830 
	C562.185913,137.711548 564.154114,138.634491 566.213074,138.934647 
	C571.955322,139.771729 577.205872,138.195618 581.592773,134.498520 
	C592.350586,125.432175 597.903931,113.413223 600.282349,99.960587 
z"/>
<path fill="#0B0B0B" opacity="1.000000" stroke="none" 
	d="
M326.979065,55.097614 
	C320.357269,75.321098 313.871002,95.185387 307.342377,115.179359 
	C299.738373,113.632774 296.895538,109.210754 299.675049,101.099281 
	C304.796844,86.152390 310.141418,71.281975 315.352142,56.365349 
	C316.549927,52.936394 317.581512,49.449368 318.934875,45.223022 
	C313.438202,45.545116 308.574402,46.123787 303.721680,46.042473 
	C297.196228,45.933125 294.439056,41.528885 296.638123,35.084286 
	C303.880127,35.084286 311.196136,35.275043 318.497803,35.032883 
	C326.467438,34.768578 334.450012,34.358528 342.378845,33.543823 
	C350.961426,32.661945 352.745697,33.727634 354.759552,43.124752 
	C349.240753,43.124752 343.834412,43.417130 338.475952,43.036312 
	C333.820435,42.705452 330.883362,44.091957 329.594177,48.749027 
	C329.022064,50.815922 327.956268,52.746155 326.979065,55.097614 
z"/>
<path fill="#0E0E0E" opacity="1.000000" stroke="none" 
	d="
M557.489624,81.360397 
	C551.525818,87.069901 545.311096,92.544861 539.682556,98.567665 
	C535.628174,102.906082 532.354858,107.974472 528.670349,112.799515 
	C524.487000,110.944778 523.215820,107.483147 523.677795,104.078354 
	C525.910889,87.622757 532.568176,72.900116 541.707214,59.236946 
	C550.011475,62.973892 551.539734,67.655510 547.239868,74.972176 
	C544.131165,80.262032 541.018921,85.549881 537.937439,90.855621 
	C537.813049,91.069832 537.989380,91.458763 538.185181,93.120316 
	C541.579651,89.708755 544.335388,86.770805 547.270691,84.024757 
	C553.086670,78.583717 558.676697,72.823929 564.976379,68.000877 
	C570.244385,63.967724 573.536072,65.051781 577.176025,69.862442 
	C573.739136,76.368530 570.382935,82.589828 567.174561,88.886436 
	C566.353088,90.498505 565.901917,92.323692 565.446533,94.093643 
	C563.308411,102.403015 564.127380,103.641029 572.840027,104.034195 
	C569.274170,107.738152 565.716248,109.573677 561.217285,108.883072 
	C556.831665,108.209869 553.936951,105.154762 554.415283,100.967941 
	C555.102295,94.955704 557.020386,89.084137 558.622681,82.573372 
	C558.384827,81.782951 557.937256,81.571671 557.489624,81.360397 
z"/>
<path fill="#0E0E0E" opacity="1.000000" stroke="none" 
	d="
M477.573700,81.559631 
	C471.642548,87.315132 465.477814,92.853508 459.858978,98.899292 
	C455.837006,103.226845 452.546448,108.234192 448.929535,112.938217 
	C448.288696,112.939156 447.647858,112.940102 447.007019,112.941040 
	C446.008575,109.836716 443.810089,106.567261 444.210724,103.655449 
	C446.448395,87.393379 453.006439,72.769386 462.114563,59.274563 
	C470.179016,62.723103 471.955353,67.693680 467.943848,74.517738 
	C464.254578,80.793739 460.560730,87.067055 457.631134,94.233185 
	C458.855865,93.301254 460.239471,92.518570 461.278809,91.412422 
	C466.751190,85.588371 472.005066,79.552841 477.613586,73.865677 
	C480.038940,71.406326 482.981018,69.352470 485.958679,67.564636 
	C491.341614,64.332657 494.293671,65.208626 498.122070,70.747238 
	C491.912994,77.859230 487.879242,86.190331 485.636353,95.340073 
	C483.756348,103.009209 484.702911,104.073807 492.118073,103.875305 
	C490.687561,107.266655 486.328369,109.607155 482.299347,109.006935 
	C478.286011,108.409058 474.707855,106.294167 475.088013,102.103027 
	C475.662720,95.767365 477.498688,89.546104 478.992676,82.642570 
	C478.649017,81.859146 478.111359,81.709389 477.573700,81.559631 
z"/>
<path fill="#0E0E0E" opacity="1.000000" stroke="none" 
	d="
M234.092651,94.238884 
	C230.316208,98.744629 227.028717,103.816223 222.637589,107.610626 
	C217.336273,112.191551 211.352768,109.832603 210.100113,102.866829 
	C209.387573,98.904411 209.552048,94.484505 210.534500,90.575462 
	C213.078430,80.453400 218.564590,71.932549 226.857391,65.483009 
	C233.602783,60.236946 238.128067,61.568550 242.010284,69.555817 
	C229.201004,75.244461 221.671951,85.241508 218.533386,98.678093 
	C218.164337,100.257935 218.887634,102.092918 219.104553,103.809631 
	C220.730133,103.229012 222.952957,103.131241 223.879379,101.985367 
	C228.216705,96.620583 232.431122,91.121719 236.230408,85.367676 
	C239.248993,80.796036 241.770874,75.868065 244.188232,70.938889 
	C245.553543,68.154900 247.025208,67.177505 250.002396,68.526863 
	C252.965439,69.869820 253.112488,71.459610 251.958176,74.412277 
	C249.178574,81.522469 246.524811,88.737663 244.644119,96.120361 
	C243.677399,99.915222 244.474426,104.159386 244.474426,109.319244 
	C242.987595,109.319244 239.775391,110.229927 237.576691,109.124596 
	C233.348175,106.998840 235.096527,102.428574 235.299927,98.328682 
	C235.984177,97.617126 236.295639,97.313759 236.607086,97.010391 
	C236.148163,96.673386 235.689209,96.336380 235.230270,95.999367 
	C235.146042,95.572166 235.061829,95.144958 235.155792,94.234634 
	C235.215973,93.314873 235.097977,92.878235 234.979950,92.441589 
	C234.684189,93.040680 234.388412,93.639778 234.092651,94.238884 
z"/>
<path fill="#0F0F0F" opacity="1.000000" stroke="none" 
	d="
M395.455383,98.141472 
	C392.010712,101.652321 388.910217,105.620277 385.024841,108.545876 
	C381.112640,111.491676 376.689697,110.090553 374.921051,105.454994 
	C373.670685,102.177826 372.967194,98.249603 373.471497,94.825882 
	C375.182556,83.209290 380.936035,73.583443 389.921600,66.065002 
	C396.680054,60.410053 399.309143,60.841938 405.507202,68.267914 
	C405.311462,69.330063 404.929901,70.076569 404.335785,70.335663 
	C393.164062,75.207558 386.827820,84.269806 383.113800,95.350677 
	C382.253540,97.917313 382.930603,100.999199 382.900238,103.843994 
	C385.350342,102.461014 387.822205,101.114510 390.236664,99.671860 
	C390.922455,99.262100 391.440918,98.572243 392.464081,98.011345 
	C393.746490,98.055054 394.600952,98.098259 395.455383,98.141472 
z"/>
<path fill="#0E0E0E" opacity="1.000000" stroke="none" 
	d="
M350.169769,85.479103 
	C346.039948,93.874664 341.910156,102.270226 337.594360,111.043839 
	C332.127350,110.242897 330.162964,107.826057 332.104248,101.497391 
	C335.561035,90.228104 339.157288,78.981178 343.275940,67.941551 
	C346.811218,58.465519 348.944275,58.172642 357.120880,64.594177 
	C355.083008,68.530273 353.040497,72.475388 350.437317,76.808075 
	C347.039948,80.060631 348.738647,82.765137 350.169769,85.479103 
z"/>
<path fill="#0E0E0E" opacity="1.000000" stroke="none" 
	d="
M511.737732,98.020378 
	C510.647919,102.053696 509.697052,105.713112 508.635925,109.796783 
	C504.456665,108.552299 501.018555,105.913132 501.861816,101.250290 
	C503.505463,92.161552 505.178955,82.891174 508.504791,74.343758 
	C512.185791,64.883591 516.991638,64.891426 522.896118,72.315826 
	C519.097900,81.046776 515.487305,89.346634 511.737732,98.020378 
z"/>
<path fill="#0F0F0F" opacity="1.000000" stroke="none" 
	d="
M441.003326,78.071152 
	C436.626892,88.618660 432.448303,98.850616 428.107147,109.480675 
	C424.996552,108.655914 421.557190,105.820900 422.388885,101.186935 
	C424.022827,92.083183 425.775269,82.807594 429.145081,74.260078 
	C432.889771,64.761658 437.858704,64.816910 444.238464,73.388023 
	C443.255127,74.802048 442.228149,76.278824 441.003326,78.071152 
z"/>
<path fill="#121212" opacity="1.000000" stroke="none" 
	d="
M395.742004,97.974586 
	C394.600952,98.098259 393.746490,98.055054 392.561371,97.688126 
	C397.693787,88.022476 403.156891,78.680557 408.619995,69.338631 
	C411.074402,66.303040 413.670380,68.080597 415.447784,69.782928 
	C416.292725,70.592194 415.892212,73.232613 415.385040,74.830612 
	C413.229523,81.622482 410.341064,88.219307 408.689026,95.119293 
	C407.701721,99.242989 408.507874,103.796074 408.507874,108.764740 
	C401.183197,112.835342 399.279633,110.607368 398.735138,94.816490 
	C397.617249,96.051956 396.822906,96.929825 395.742004,97.974586 
z"/>
<path fill="#EFEFEF" opacity="1.000000" stroke="none" 
	d="
M408.268677,69.168030 
	C403.156891,78.680557 397.693787,88.022476 392.133392,97.687622 
	C391.440918,98.572243 390.922455,99.262100 390.236664,99.671860 
	C387.822205,101.114510 385.350342,102.461014 382.900238,103.843994 
	C382.930603,100.999199 382.253540,97.917313 383.113800,95.350677 
	C386.827820,84.269806 393.164062,75.207558 404.335785,70.335663 
	C404.929901,70.076569 405.311462,69.330063 405.783936,68.447617 
	C406.489685,68.388985 407.203522,68.693199 408.268677,69.168030 
z"/>
<path fill="#141414" opacity="1.000000" stroke="none" 
	d="
M350.492188,85.339340 
	C348.738647,82.765137 347.039948,80.060631 350.194214,77.090355 
	C350.484741,77.328392 350.457733,77.671730 350.238342,78.556519 
	C350.105560,79.762001 350.165161,80.426041 350.224792,81.090088 
	C350.694366,80.746033 351.163910,80.401970 351.633453,80.057899 
	C355.968964,75.501236 360.579926,71.168709 364.537964,66.304855 
	C366.958862,63.329983 369.010956,62.008278 372.228333,64.311943 
	C372.228333,69.945183 372.474854,75.501793 372.080444,81.012527 
	C371.959686,82.700020 370.359100,84.657959 368.878418,85.697739 
	C368.231262,86.152199 365.883728,84.918510 364.836578,83.905449 
	C363.084412,82.210266 361.755859,80.077225 359.822998,77.577560 
	C356.812408,80.124817 353.813538,82.662193 350.492188,85.339340 
z"/>
<path fill="#151515" opacity="1.000000" stroke="none" 
	d="
M441.550201,55.894398 
	C441.894409,50.230011 442.390564,44.914471 442.886688,39.598934 
	C443.512573,39.306755 444.138458,39.014572 444.764343,38.722393 
	C448.555298,41.220768 452.346222,43.719143 456.348938,46.357075 
	C451.952728,51.629948 448.261017,56.057827 443.641327,61.598732 
	C442.820465,59.331799 442.261292,57.787521 441.550201,55.894398 
z"/>
<path fill="#111111" opacity="1.000000" stroke="none" 
	d="
M532.277283,43.764881 
	C533.415771,44.968075 534.279236,45.937481 535.217712,46.991104 
	C531.372498,51.600292 527.682617,56.023212 523.997375,60.440624 
	C519.270264,57.844936 519.164795,48.841881 524.056335,38.865654 
	C526.730835,40.435993 529.366577,41.983540 532.277283,43.764881 
z"/>
<path fill="#0F0F0F" opacity="1.000000" stroke="none" 
	d="
M234.282196,94.190155 
	C234.388412,93.639778 234.684189,93.040680 234.979950,92.441589 
	C235.097977,92.878235 235.215973,93.314873 235.095276,93.910675 
	C234.856552,94.069832 234.471756,94.141434 234.282196,94.190155 
z"/>
<path fill="#0F0F0F" opacity="1.000000" stroke="none" 
	d="
M235.127197,96.324074 
	C235.689209,96.336380 236.148163,96.673386 236.607086,97.010391 
	C236.295639,97.313759 235.984177,97.617126 235.391510,97.960228 
	C235.081573,97.549561 235.052856,97.099174 235.127197,96.324074 
z"/>
<path fill="#FDFDFD" opacity="1.000000" stroke="none" 
	d="
M557.715759,81.635101 
	C557.937256,81.571671 558.384827,81.782951 558.634888,82.207474 
	C558.272156,82.250420 558.106995,82.080116 557.715759,81.635101 
z"/>
<path fill="#FDFDFD" opacity="1.000000" stroke="none" 
	d="
M477.867554,81.813812 
	C478.111359,81.709389 478.649017,81.859146 478.989166,82.265732 
	C478.581573,82.371040 478.371490,82.219521 477.867554,81.813812 
z"/>
<path fill="#FDFDFD" opacity="1.000000" stroke="none" 
	d="
M351.368958,79.662338 
	C351.163910,80.401970 350.694366,80.746033 350.224792,81.090088 
	C350.165161,80.426041 350.105560,79.762001 350.267944,78.819038 
	C350.694824,78.782333 350.899658,79.024551 351.368958,79.662338 
z"/>
</svg>